# Blender v2.79 (sub 0) OBJ File: ''
# www.blender.org
mtllib chimney.mtl
o Cube
v 0.646847 -0.053336 -0.646847
v 0.646847 -0.053336 0.646847
v -0.646847 -0.053336 0.646847
v -0.646847 -0.053336 -0.646847
v 0.624904 1.000000 -0.624903
v 0.624903 1.000000 0.624904
v -0.624904 1.000000 0.624903
v -0.624903 1.000000 -0.624903
v 1.000000 1.000000 -0.999999
v 0.999999 1.000000 1.000001
v -1.000000 1.000000 -1.000000
v -1.000000 1.000000 1.000000
v 0.624904 0.464180 -0.624903
v 0.624903 0.464180 0.624904
v -0.624903 0.464180 -0.624903
v -0.624904 0.464180 0.624903
v 1.000000 -0.053336 -1.000000
v 1.000000 -0.053336 1.000000
v -1.000000 -0.053336 -1.000000
v -1.000000 -0.053336 1.000000
v 0.646847 -3.322455 -0.646847
v 0.646847 -3.322455 0.646847
v -0.646847 -3.322455 -0.646847
v -0.646847 -3.322455 0.646847
vn -1.0000 0.0000 -0.0000
vn -0.0000 0.0000 1.0000
vn 1.0000 0.0000 0.0000
vn 0.0000 0.0000 -1.0000
vn 0.0000 1.0000 0.0000
vn 0.0000 -1.0000 0.0000
usemtl Material
s off
f 3//1 4//1 23//1 24//1
f 5//2 8//2 15//2 13//2
f 17//3 9//3 10//3 18//3
f 18//2 10//2 12//2 20//2
f 20//1 12//1 11//1 19//1
f 9//4 17//4 19//4 11//4
f 5//5 6//5 10//5 9//5
f 8//5 5//5 9//5 11//5
f 6//5 7//5 12//5 10//5
f 7//5 8//5 11//5 12//5
f 13//5 15//5 16//5 14//5
f 7//4 6//4 14//4 16//4
f 6//1 5//1 13//1 14//1
f 8//3 7//3 16//3 15//3
f 2//6 1//6 17//6 18//6
f 1//6 4//6 19//6 17//6
f 3//6 2//6 18//6 20//6
f 4//6 3//6 20//6 19//6
f 21//6 22//6 24//6 23//6
f 4//4 1//4 21//4 23//4
f 2//2 3//2 24//2 22//2
f 1//3 2//3 22//3 21//3
