# MagicaVoxel @ Ephtracy

# group
g robot_big

# material
mtllib robot_big.mtl
usemtl palette

# normals
vn -1 0 0
vn 1 0 0
vn 0 0 1
vn 0 0 -1
vn 0 -1 0
vn 0 1 0

# texcoords
vt 0.880859 0.5
vt 0.978516 0.5
vt 0.982422 0.5
vt 0.990234 0.5

# verts
v -4 7 5
v -4 7 -5
v -4 9 4
v -4 9 -4
v -4 10 4
v -4 10 -4
v -4 11 4
v -4 11 -4
v -4 12 4
v -4 12 -4
v -4 13 5
v -4 13 -5
v -3 4 3
v -3 4 -3
v -3 5 2
v -3 5 -2
v -3 7 3
v -3 7 2
v -3 7 -2
v -3 7 -3
v -3 13 4
v -3 13 -4
v -3 14 4
v -3 14 -4
v -1 0 2
v -1 0 1
v -1 0 -1
v -1 0 -2
v -1 2 2
v -1 2 1
v -1 2 -1
v -1 2 -2
v -1 4 2
v -1 4 1
v -1 4 -1
v -1 4 -2
v 0 4 5
v 0 4 4
v 0 4 3
v 0 4 -3
v 0 4 -4
v 0 4 -5
v 0 6 5
v 0 6 4
v 0 6 3
v 0 6 -3
v 0 6 -4
v 0 6 -5
v 1 0 2
v 1 0 1
v 1 0 -1
v 1 0 -2
v 1 2 2
v 1 2 1
v 1 2 -1
v 1 2 -2
v 1 4 5
v 1 4 4
v 1 4 3
v 1 4 2
v 1 4 1
v 1 4 -1
v 1 4 -2
v 1 4 -3
v 1 4 -4
v 1 4 -5
v 1 6 5
v 1 6 4
v 1 6 3
v 1 6 -3
v 1 6 -4
v 1 6 -5
v 3 4 3
v 3 4 -3
v 3 5 2
v 3 5 1
v 3 5 -0
v 3 5 -1
v 3 6 2
v 3 6 1
v 3 6 -0
v 3 6 -1
v 3 6 -2
v 3 7 3
v 3 7 1
v 3 7 -0
v 3 7 -1
v 3 7 -2
v 3 7 -3
v 3 8 4
v 3 8 -4
v 3 9 2
v 3 9 1
v 3 9 -1
v 3 9 -2
v 3 11 2
v 3 11 1
v 3 11 -1
v 3 11 -2
v 3 12 4
v 3 12 -4
v 3 13 4
v 3 13 -4
v 3 14 4
v 3 14 -4
v 4 7 5
v 4 7 -5
v 4 8 4
v 4 8 -4
v 4 9 2
v 4 9 1
v 4 9 -1
v 4 9 -2
v 4 11 2
v 4 11 1
v 4 11 -1
v 4 11 -2
v 4 12 4
v 4 12 -4
v 4 13 5
v 4 13 -5
v -4 7 5
v -4 13 5
v -3 9 5
v -3 10 5
v -3 11 5
v -3 12 5
v 0 4 5
v 0 6 5
v 1 4 5
v 1 6 5
v 1 9 5
v 1 10 5
v 1 11 5
v 1 12 5
v 4 7 5
v 4 13 5
v -3 13 4
v -3 14 4
v 3 13 4
v 3 14 4
v -3 4 3
v -3 7 3
v 0 4 3
v 0 6 3
v 1 4 3
v 1 6 3
v 3 4 3
v 3 7 3
v -1 0 2
v -1 2 2
v -1 4 2
v 1 0 2
v 1 2 2
v 1 4 2
v 3 9 2
v 3 11 2
v 4 9 2
v 4 11 2
v -1 0 -1
v -1 2 -1
v -1 4 -1
v 1 0 -1
v 1 2 -1
v 1 4 -1
v 3 9 -1
v 3 11 -1
v 4 9 -1
v 4 11 -1
v 3 8 -4
v 3 12 -4
v 4 8 -4
v 4 12 -4
v 3 8 4
v 3 12 4
v 4 8 4
v 4 12 4
v -1 0 1
v -1 2 1
v -1 4 1
v 1 0 1
v 1 2 1
v 1 4 1
v 3 9 1
v 3 11 1
v 4 9 1
v 4 11 1
v -1 0 -2
v -1 2 -2
v -1 4 -2
v 1 0 -2
v 1 2 -2
v 1 4 -2
v 3 9 -2
v 3 11 -2
v 4 9 -2
v 4 11 -2
v -3 4 -3
v -3 7 -3
v 0 4 -3
v 0 6 -3
v 1 4 -3
v 1 6 -3
v 3 4 -3
v 3 7 -3
v -3 13 -4
v -3 14 -4
v 3 13 -4
v 3 14 -4
v -4 7 -5
v -4 13 -5
v -2 9 -5
v -2 10 -5
v -2 11 -5
v -2 12 -5
v 0 4 -5
v 0 6 -5
v 1 4 -5
v 1 6 -5
v 2 9 -5
v 2 10 -5
v 2 11 -5
v 2 12 -5
v 4 7 -5
v 4 13 -5
v -1 0 2
v 1 0 2
v -1 0 1
v 1 0 1
v -1 0 -1
v 1 0 -1
v -1 0 -2
v 1 0 -2
v 0 4 5
v 1 4 5
v 0 4 4
v 1 4 4
v -3 4 3
v 0 4 3
v 1 4 3
v 3 4 3
v -1 4 2
v 1 4 2
v -1 4 1
v 1 4 1
v -1 4 -1
v 1 4 -1
v -1 4 -2
v 1 4 -2
v -3 4 -3
v 0 4 -3
v 1 4 -3
v 3 4 -3
v 0 4 -4
v 1 4 -4
v 0 4 -5
v 1 4 -5
v -4 7 5
v 4 7 5
v -3 7 3
v 3 7 3
v -3 7 2
v 3 7 1
v 3 7 -0
v 3 7 -1
v -3 7 -2
v 3 7 -2
v -3 7 -3
v 3 7 -3
v -4 7 -5
v 4 7 -5
v 3 9 2
v 4 9 2
v 3 9 1
v 4 9 1
v 3 9 -1
v 4 9 -1
v 3 9 -2
v 4 9 -2
v 3 12 4
v 4 12 4
v 3 12 -4
v 4 12 -4
v 0 6 5
v 1 6 5
v 0 6 4
v 1 6 4
v 0 6 3
v 1 6 3
v 0 6 -3
v 1 6 -3
v 0 6 -4
v 1 6 -4
v 0 6 -5
v 1 6 -5
v 3 8 4
v 4 8 4
v 3 8 -4
v 4 8 -4
v 3 11 2
v 4 11 2
v 3 11 1
v 4 11 1
v 3 11 -1
v 4 11 -1
v 3 11 -2
v 4 11 -2
v -4 13 5
v 4 13 5
v -3 13 4
v 3 13 4
v -3 13 -4
v 3 13 -4
v -4 13 -5
v 4 13 -5
v -3 14 4
v 3 14 4
v -2 14 3
v -1 14 3
v 1 14 3
v 2 14 3
v -2 14 2
v -1 14 2
v 0 14 2
v -2 14 1
v -1 14 1
v 0 14 1
v 1 14 1
v 2 14 1
v -2 14 -0
v -1 14 -0
v 0 14 -0
v 1 14 -0
v 2 14 -0
v -1 14 -1
v 0 14 -1
v -2 14 -2
v -1 14 -2
v 0 14 -2
v 1 14 -2
v 2 14 -2
v -2 14 -3
v -1 14 -3
v 0 14 -3
v 1 14 -3
v -3 14 -4
v 3 14 -4

# faces
f 3/2/1 2/2/1 1/2/1
f 4/2/1 2/2/1 3/2/1
f 5/2/1 3/2/1 1/2/1
f 5/3/1 4/3/1 3/3/1
f 6/2/1 2/2/1 4/2/1
f 6/3/1 4/3/1 5/3/1
f 7/2/1 5/2/1 1/2/1
f 7/2/1 6/2/1 5/2/1
f 8/2/1 2/2/1 6/2/1
f 8/2/1 6/2/1 7/2/1
f 9/2/1 7/2/1 1/2/1
f 9/3/1 8/3/1 7/3/1
f 10/2/1 2/2/1 8/2/1
f 10/3/1 8/3/1 9/3/1
f 11/2/1 9/2/1 1/2/1
f 11/2/1 10/2/1 9/2/1
f 12/2/1 2/2/1 10/2/1
f 12/2/1 10/2/1 11/2/1
f 15/2/1 14/2/1 13/2/1
f 16/2/1 14/2/1 15/2/1
f 17/2/1 15/2/1 13/2/1
f 18/3/1 16/3/1 15/3/1
f 18/2/1 15/2/1 17/2/1
f 19/2/1 14/2/1 16/2/1
f 19/3/1 16/3/1 18/3/1
f 20/2/1 14/2/1 19/2/1
f 23/2/1 22/2/1 21/2/1
f 24/2/1 22/2/1 23/2/1
f 29/3/1 26/3/1 25/3/1
f 30/3/1 26/3/1 29/3/1
f 31/3/1 28/3/1 27/3/1
f 32/3/1 28/3/1 31/3/1
f 33/2/1 30/2/1 29/2/1
f 34/2/1 30/2/1 33/2/1
f 35/2/1 32/2/1 31/2/1
f 36/2/1 32/2/1 35/2/1
f 43/3/1 38/3/1 37/3/1
f 44/2/1 39/2/1 38/2/1
f 44/3/1 38/3/1 43/3/1
f 45/2/1 39/2/1 44/2/1
f 46/2/1 41/2/1 40/2/1
f 47/3/1 42/3/1 41/3/1
f 47/2/1 41/2/1 46/2/1
f 48/3/1 42/3/1 47/3/1
f 49/3/2 50/3/2 53/3/2
f 53/3/2 50/3/2 54/3/2
f 51/3/2 52/3/2 55/3/2
f 55/3/2 52/3/2 56/3/2
f 53/2/2 54/2/2 60/2/2
f 60/2/2 54/2/2 61/2/2
f 55/2/2 56/2/2 62/2/2
f 62/2/2 56/2/2 63/2/2
f 57/3/2 58/3/2 67/3/2
f 58/2/2 59/2/2 68/2/2
f 67/3/2 58/3/2 68/3/2
f 68/2/2 59/2/2 69/2/2
f 64/2/2 65/2/2 70/2/2
f 65/3/2 66/3/2 71/3/2
f 70/2/2 65/2/2 71/2/2
f 71/3/2 66/3/2 72/3/2
f 73/2/2 74/2/2 75/2/2
f 75/2/2 74/2/2 76/2/2
f 76/2/2 74/2/2 77/2/2
f 77/2/2 74/2/2 78/2/2
f 73/2/2 75/2/2 79/2/2
f 75/3/2 76/3/2 79/3/2
f 76/2/2 77/2/2 80/2/2
f 79/3/2 76/3/2 80/3/2
f 77/3/2 78/3/2 81/3/2
f 80/2/2 77/2/2 81/2/2
f 78/2/2 74/2/2 82/2/2
f 81/3/2 78/3/2 82/3/2
f 82/2/2 74/2/2 83/2/2
f 79/2/2 80/2/2 84/2/2
f 73/2/2 79/2/2 84/2/2
f 80/3/2 81/3/2 85/3/2
f 84/2/2 80/2/2 85/2/2
f 81/2/2 82/2/2 86/2/2
f 85/3/2 81/3/2 86/3/2
f 82/3/2 83/3/2 87/3/2
f 86/2/2 82/2/2 87/2/2
f 83/2/2 74/2/2 88/2/2
f 87/3/2 83/3/2 88/3/2
f 88/2/2 74/2/2 89/2/2
f 90/4/2 91/4/2 92/4/2
f 92/4/2 91/4/2 93/4/2
f 93/4/2 91/4/2 94/4/2
f 94/4/2 91/4/2 95/4/2
f 90/4/2 92/4/2 96/4/2
f 93/4/2 94/4/2 97/4/2
f 97/4/2 94/4/2 98/4/2
f 95/4/2 91/4/2 99/4/2
f 97/4/2 98/4/2 100/4/2
f 98/4/2 99/4/2 100/4/2
f 90/4/2 96/4/2 100/4/2
f 96/4/2 97/4/2 100/4/2
f 99/4/2 91/4/2 101/4/2
f 100/4/2 99/4/2 101/4/2
f 102/2/2 103/2/2 104/2/2
f 104/2/2 103/2/2 105/2/2
f 106/2/2 107/2/2 108/2/2
f 108/2/2 107/2/2 109/2/2
f 110/1/2 111/1/2 114/1/2
f 114/1/2 111/1/2 115/1/2
f 112/1/2 113/1/2 116/1/2
f 116/1/2 113/1/2 117/1/2
f 106/2/2 108/2/2 118/2/2
f 109/2/2 107/2/2 119/2/2
f 106/2/2 118/2/2 120/2/2
f 118/2/2 119/2/2 120/2/2
f 119/2/2 107/2/2 121/2/2
f 120/2/2 119/2/2 121/2/2
f 124/2/3 123/2/3 122/2/3
f 125/2/3 123/2/3 124/2/3
f 126/2/3 123/2/3 125/2/3
f 127/2/3 123/2/3 126/2/3
f 130/3/3 129/3/3 128/3/3
f 131/3/3 129/3/3 130/3/3
f 132/2/3 124/2/3 122/2/3
f 132/3/3 125/3/3 124/3/3
f 133/2/3 126/2/3 125/2/3
f 133/3/3 125/3/3 132/3/3
f 134/3/3 127/3/3 126/3/3
f 134/2/3 126/2/3 133/2/3
f 135/2/3 123/2/3 127/2/3
f 135/3/3 127/3/3 134/3/3
f 136/2/3 132/2/3 122/2/3
f 136/2/3 135/2/3 134/2/3
f 136/2/3 134/2/3 133/2/3
f 136/2/3 133/2/3 132/2/3
f 137/2/3 123/2/3 135/2/3
f 137/2/3 135/2/3 136/2/3
f 140/2/3 139/2/3 138/2/3
f 141/2/3 139/2/3 140/2/3
f 144/2/3 143/2/3 142/2/3
f 145/2/3 143/2/3 144/2/3
f 147/2/3 143/2/3 145/2/3
f 148/2/3 147/2/3 146/2/3
f 149/2/3 143/2/3 147/2/3
f 149/2/3 147/2/3 148/2/3
f 153/3/3 151/3/3 150/3/3
f 154/2/3 152/2/3 151/2/3
f 154/3/3 151/3/3 153/3/3
f 155/2/3 152/2/3 154/2/3
f 158/1/3 157/1/3 156/1/3
f 159/1/3 157/1/3 158/1/3
f 163/3/3 161/3/3 160/3/3
f 164/2/3 162/2/3 161/2/3
f 164/3/3 161/3/3 163/3/3
f 165/2/3 162/2/3 164/2/3
f 168/1/3 167/1/3 166/1/3
f 169/1/3 167/1/3 168/1/3
f 172/2/3 171/2/3 170/2/3
f 173/2/3 171/2/3 172/2/3
f 174/2/4 175/2/4 176/2/4
f 176/2/4 175/2/4 177/2/4
f 178/3/4 179/3/4 181/3/4
f 179/2/4 180/2/4 182/2/4
f 181/3/4 179/3/4 182/3/4
f 182/2/4 180/2/4 183/2/4
f 184/1/4 185/1/4 186/1/4
f 186/1/4 185/1/4 187/1/4
f 188/3/4 189/3/4 191/3/4
f 189/2/4 190/2/4 192/2/4
f 191/3/4 189/3/4 192/3/4
f 192/2/4 190/2/4 193/2/4
f 194/1/4 195/1/4 196/1/4
f 196/1/4 195/1/4 197/1/4
f 198/2/4 199/2/4 200/2/4
f 200/2/4 199/2/4 201/2/4
f 201/2/4 199/2/4 203/2/4
f 202/2/4 203/2/4 204/2/4
f 203/2/4 199/2/4 205/2/4
f 204/2/4 203/2/4 205/2/4
f 206/2/4 207/2/4 208/2/4
f 208/2/4 207/2/4 209/2/4
f 210/2/4 211/2/4 212/2/4
f 212/2/4 211/2/4 213/2/4
f 213/2/4 211/2/4 214/2/4
f 214/2/4 211/2/4 215/2/4
f 216/3/4 217/3/4 218/3/4
f 218/3/4 217/3/4 219/3/4
f 210/2/4 212/2/4 220/2/4
f 212/3/4 213/3/4 220/3/4
f 213/2/4 214/2/4 221/2/4
f 220/3/4 213/3/4 221/3/4
f 214/3/4 215/3/4 222/3/4
f 221/2/4 214/2/4 222/2/4
f 215/2/4 211/2/4 223/2/4
f 222/3/4 215/3/4 223/3/4
f 221/2/4 222/2/4 224/2/4
f 210/2/4 220/2/4 224/2/4
f 222/2/4 223/2/4 224/2/4
f 220/2/4 221/2/4 224/2/4
f 223/2/4 211/2/4 225/2/4
f 224/2/4 223/2/4 225/2/4
f 228/3/5 227/3/5 226/3/5
f 229/3/5 227/3/5 228/3/5
f 232/3/5 231/3/5 230/3/5
f 233/3/5 231/3/5 232/3/5
f 236/3/5 235/3/5 234/3/5
f 237/3/5 235/3/5 236/3/5
f 239/2/5 237/2/5 236/2/5
f 240/2/5 237/2/5 239/2/5
f 242/2/5 240/2/5 239/2/5
f 242/2/5 241/2/5 240/2/5
f 242/2/5 239/2/5 238/2/5
f 243/2/5 241/2/5 242/2/5
f 244/2/5 242/2/5 238/2/5
f 245/2/5 241/2/5 243/2/5
f 246/2/5 244/2/5 238/2/5
f 246/2/5 245/2/5 244/2/5
f 247/2/5 241/2/5 245/2/5
f 247/2/5 245/2/5 246/2/5
f 248/2/5 246/2/5 238/2/5
f 249/2/5 241/2/5 247/2/5
f 250/2/5 248/2/5 238/2/5
f 250/2/5 249/2/5 248/2/5
f 251/2/5 249/2/5 250/2/5
f 252/2/5 241/2/5 249/2/5
f 252/2/5 249/2/5 251/2/5
f 253/2/5 241/2/5 252/2/5
f 254/2/5 252/2/5 251/2/5
f 255/2/5 252/2/5 254/2/5
f 256/3/5 255/3/5 254/3/5
f 257/3/5 255/3/5 256/3/5
f 260/2/5 259/2/5 258/2/5
f 261/2/5 259/2/5 260/2/5
f 262/2/5 260/2/5 258/2/5
f 263/2/5 259/2/5 261/2/5
f 264/2/5 259/2/5 263/2/5
f 265/2/5 259/2/5 264/2/5
f 266/2/5 262/2/5 258/2/5
f 267/2/5 259/2/5 265/2/5
f 268/2/5 266/2/5 258/2/5
f 269/2/5 259/2/5 267/2/5
f 270/2/5 268/2/5 258/2/5
f 270/2/5 269/2/5 268/2/5
f 271/2/5 259/2/5 269/2/5
f 271/2/5 269/2/5 270/2/5
f 274/1/5 273/1/5 272/1/5
f 275/1/5 273/1/5 274/1/5
f 278/1/5 277/1/5 276/1/5
f 279/1/5 277/1/5 278/1/5
f 282/2/5 281/2/5 280/2/5
f 283/2/5 281/2/5 282/2/5
f 284/3/6 285/3/6 286/3/6
f 286/3/6 285/3/6 287/3/6
f 286/2/6 287/2/6 288/2/6
f 288/2/6 287/2/6 289/2/6
f 290/2/6 291/2/6 292/2/6
f 292/2/6 291/2/6 293/2/6
f 292/3/6 293/3/6 294/3/6
f 294/3/6 293/3/6 295/3/6
f 296/2/6 297/2/6 298/2/6
f 298/2/6 297/2/6 299/2/6
f 300/1/6 301/1/6 302/1/6
f 302/1/6 301/1/6 303/1/6
f 304/1/6 305/1/6 306/1/6
f 306/1/6 305/1/6 307/1/6
f 308/2/6 309/2/6 310/2/6
f 310/2/6 309/2/6 311/2/6
f 308/2/6 310/2/6 312/2/6
f 311/2/6 309/2/6 313/2/6
f 308/2/6 312/2/6 314/2/6
f 312/2/6 313/2/6 314/2/6
f 313/2/6 309/2/6 315/2/6
f 314/2/6 313/2/6 315/2/6
f 316/2/6 317/2/6 318/2/6
f 318/2/6 317/2/6 319/2/6
f 319/2/6 317/2/6 320/2/6
f 320/2/6 317/2/6 321/2/6
f 316/2/6 318/2/6 322/2/6
f 318/3/6 319/3/6 322/3/6
f 319/2/6 320/2/6 323/2/6
f 322/3/6 319/3/6 323/3/6
f 323/2/6 320/2/6 324/2/6
f 316/2/6 322/2/6 325/2/6
f 322/2/6 323/2/6 325/2/6
f 323/3/6 324/3/6 326/3/6
f 325/2/6 323/2/6 326/2/6
f 324/2/6 320/2/6 327/2/6
f 326/3/6 324/3/6 327/3/6
f 320/3/6 321/3/6 328/3/6
f 327/2/6 320/2/6 328/2/6
f 321/2/6 317/2/6 329/2/6
f 328/3/6 321/3/6 329/3/6
f 325/3/6 326/3/6 330/3/6
f 316/2/6 325/2/6 330/2/6
f 326/2/6 327/2/6 331/2/6
f 330/3/6 326/3/6 331/3/6
f 327/3/6 328/3/6 332/3/6
f 331/2/6 327/2/6 332/2/6
f 328/2/6 329/2/6 333/2/6
f 332/3/6 328/3/6 333/3/6
f 329/2/6 317/2/6 334/2/6
f 333/2/6 329/2/6 334/2/6
f 330/2/6 331/2/6 335/2/6
f 331/3/6 332/3/6 335/3/6
f 332/2/6 333/2/6 336/2/6
f 335/3/6 332/3/6 336/3/6
f 316/2/6 330/2/6 337/2/6
f 330/2/6 335/2/6 337/2/6
f 335/2/6 336/2/6 337/2/6
f 337/2/6 336/2/6 338/2/6
f 336/2/6 333/2/6 339/2/6
f 338/2/6 336/2/6 339/2/6
f 333/3/6 334/3/6 340/3/6
f 339/2/6 333/2/6 340/2/6
f 334/2/6 317/2/6 341/2/6
f 340/3/6 334/3/6 341/3/6
f 337/3/6 338/3/6 342/3/6
f 316/2/6 337/2/6 342/2/6
f 338/2/6 339/2/6 343/2/6
f 342/3/6 338/3/6 343/3/6
f 339/3/6 340/3/6 344/3/6
f 343/2/6 339/2/6 344/2/6
f 340/2/6 341/2/6 345/2/6
f 344/3/6 340/3/6 345/3/6
f 342/2/6 343/2/6 346/2/6
f 316/2/6 342/2/6 346/2/6
f 344/2/6 345/2/6 346/2/6
f 343/2/6 344/2/6 346/2/6
f 345/2/6 341/2/6 347/2/6
f 346/2/6 345/2/6 347/2/6
f 341/2/6 317/2/6 347/2/6
